<svg width="27" height="27" viewBox="0 0 27 27" fill="none" xmlns="http://www.w3.org/2000/svg">
<g clip-path="url(#clip0_176_7319)">
<path d="M22.6553 27.0002C22.2392 26.999 21.8273 26.9154 21.4436 26.7542C21.0599 26.593 20.712 26.3573 20.4199 26.0608L13.5011 19.1825L6.58235 26.0653C6.138 26.5161 5.56814 26.8226 4.94706 26.9448C4.32597 27.067 3.68247 26.9993 3.10045 26.7504C2.51265 26.514 2.00981 26.1058 1.65758 25.5792C1.30536 25.0526 1.12012 24.432 1.12606 23.7984V5.62504C1.12606 4.13319 1.7187 2.70244 2.7736 1.64754C3.8285 0.592636 5.25925 0 6.7511 0L20.2512 0C20.9899 0 21.7213 0.145496 22.4038 0.428181C23.0863 0.710865 23.7064 1.1252 24.2287 1.64754C24.751 2.16987 25.1654 2.78997 25.4481 3.47243C25.7307 4.15489 25.8762 4.88635 25.8762 5.62504V23.7984C25.8825 24.4314 25.698 25.0517 25.3466 25.5782C24.9952 26.1048 24.4933 26.5133 23.9063 26.7504C23.5101 26.9161 23.0848 27.0011 22.6553 27.0002ZM6.7511 2.25002C5.85599 2.25002 4.99754 2.6056 4.3646 3.23854C3.73166 3.87148 3.37608 4.72993 3.37608 5.62504V23.7984C3.37567 23.9859 3.43083 24.1693 3.53459 24.3254C3.63835 24.4815 3.78606 24.6034 3.95905 24.6756C4.13204 24.7479 4.32255 24.7672 4.50653 24.7312C4.69051 24.6952 4.85969 24.6055 4.99271 24.4734L12.7136 16.7997C12.9244 16.5902 13.2096 16.4726 13.5068 16.4726C13.804 16.4726 14.0891 16.5902 14.2999 16.7997L22.0118 24.4712C22.1449 24.6033 22.314 24.693 22.498 24.729C22.682 24.7649 22.8725 24.7456 23.0455 24.6734C23.2185 24.6011 23.3662 24.4793 23.47 24.3231C23.5737 24.167 23.6289 23.9836 23.6285 23.7962V5.62504C23.6285 4.72993 23.2729 3.87148 22.6399 3.23854C22.007 2.6056 21.1486 2.25002 20.2534 2.25002H6.7511Z" fill="#E8F9FD"/>
</g>
<defs>
<clipPath id="clip0_176_7319">
<rect width="26.1818" height="26.1818" fill="white" transform="scale(1.03126)"/>
</clipPath>
</defs>
</svg>
