<svg width="40" height="40" viewBox="0 0 40 40" fill="none" xmlns="http://www.w3.org/2000/svg">
<path d="M15 0H8.33333C6.1232 0 4.00358 0.877974 2.44078 2.44078C0.877974 4.00358 0 6.1232 0 8.33333L0 31.6667C0 32.761 0.215548 33.8447 0.634337 34.8557C1.05313 35.8667 1.66696 36.7854 2.44078 37.5592C4.00358 39.122 6.1232 40 8.33333 40H23.3333V8.33333C23.3333 7.23898 23.1178 6.15535 22.699 5.1443C22.2802 4.13326 21.6664 3.2146 20.8926 2.44078C20.1187 1.66696 19.2001 1.05313 18.189 0.634337C17.178 0.215548 16.0943 0 15 0V0ZM8.33333 31.6667H6.66667C6.22464 31.6667 5.80072 31.4911 5.48816 31.1785C5.17559 30.866 5 30.442 5 30C5 29.558 5.17559 29.134 5.48816 28.8215C5.80072 28.5089 6.22464 28.3333 6.66667 28.3333H8.33333C8.77536 28.3333 9.19928 28.5089 9.51184 28.8215C9.8244 29.134 10 29.558 10 30C10 30.442 9.8244 30.866 9.51184 31.1785C9.19928 31.4911 8.77536 31.6667 8.33333 31.6667ZM8.33333 25H6.66667C6.22464 25 5.80072 24.8244 5.48816 24.5118C5.17559 24.1993 5 23.7754 5 23.3333C5 22.8913 5.17559 22.4674 5.48816 22.1548C5.80072 21.8423 6.22464 21.6667 6.66667 21.6667H8.33333C8.77536 21.6667 9.19928 21.8423 9.51184 22.1548C9.8244 22.4674 10 22.8913 10 23.3333C10 23.7754 9.8244 24.1993 9.51184 24.5118C9.19928 24.8244 8.77536 25 8.33333 25ZM8.33333 18.3333H6.66667C6.22464 18.3333 5.80072 18.1577 5.48816 17.8452C5.17559 17.5326 5 17.1087 5 16.6667C5 16.2246 5.17559 15.8007 5.48816 15.4882C5.80072 15.1756 6.22464 15 6.66667 15H8.33333C8.77536 15 9.19928 15.1756 9.51184 15.4882C9.8244 15.8007 10 16.2246 10 16.6667C10 17.1087 9.8244 17.5326 9.51184 17.8452C9.19928 18.1577 8.77536 18.3333 8.33333 18.3333ZM8.33333 11.6667H6.66667C6.22464 11.6667 5.80072 11.4911 5.48816 11.1785C5.17559 10.8659 5 10.442 5 10C5 9.55797 5.17559 9.13405 5.48816 8.82149C5.80072 8.50893 6.22464 8.33333 6.66667 8.33333H8.33333C8.77536 8.33333 9.19928 8.50893 9.51184 8.82149C9.8244 9.13405 10 9.55797 10 10C10 10.442 9.8244 10.8659 9.51184 11.1785C9.19928 11.4911 8.77536 11.6667 8.33333 11.6667ZM16.6667 31.6667H15C14.558 31.6667 14.134 31.4911 13.8215 31.1785C13.5089 30.866 13.3333 30.442 13.3333 30C13.3333 29.558 13.5089 29.134 13.8215 28.8215C14.134 28.5089 14.558 28.3333 15 28.3333H16.6667C17.1087 28.3333 17.5326 28.5089 17.8452 28.8215C18.1577 29.134 18.3333 29.558 18.3333 30C18.3333 30.442 18.1577 30.866 17.8452 31.1785C17.5326 31.4911 17.1087 31.6667 16.6667 31.6667ZM16.6667 25H15C14.558 25 14.134 24.8244 13.8215 24.5118C13.5089 24.1993 13.3333 23.7754 13.3333 23.3333C13.3333 22.8913 13.5089 22.4674 13.8215 22.1548C14.134 21.8423 14.558 21.6667 15 21.6667H16.6667C17.1087 21.6667 17.5326 21.8423 17.8452 22.1548C18.1577 22.4674 18.3333 22.8913 18.3333 23.3333C18.3333 23.7754 18.1577 24.1993 17.8452 24.5118C17.5326 24.8244 17.1087 25 16.6667 25ZM16.6667 18.3333H15C14.558 18.3333 14.134 18.1577 13.8215 17.8452C13.5089 17.5326 13.3333 17.1087 13.3333 16.6667C13.3333 16.2246 13.5089 15.8007 13.8215 15.4882C14.134 15.1756 14.558 15 15 15H16.6667C17.1087 15 17.5326 15.1756 17.8452 15.4882C18.1577 15.8007 18.3333 16.2246 18.3333 16.6667C18.3333 17.1087 18.1577 17.5326 17.8452 17.8452C17.5326 18.1577 17.1087 18.3333 16.6667 18.3333ZM16.6667 11.6667H15C14.558 11.6667 14.134 11.4911 13.8215 11.1785C13.5089 10.8659 13.3333 10.442 13.3333 10C13.3333 9.55797 13.5089 9.13405 13.8215 8.82149C14.134 8.50893 14.558 8.33333 15 8.33333H16.6667C17.1087 8.33333 17.5326 8.50893 17.8452 8.82149C18.1577 9.13405 18.3333 9.55797 18.3333 10C18.3333 10.442 18.1577 10.8659 17.8452 11.1785C17.5326 11.4911 17.1087 11.6667 16.6667 11.6667ZM31.6667 8.33333H26.6667V40H31.6667C33.876 39.9974 35.9941 39.1185 37.5563 37.5563C39.1185 35.9941 39.9974 33.876 40 31.6667V16.6667C39.9974 14.4573 39.1185 12.3393 37.5563 10.777C35.9941 9.2148 33.876 8.33598 31.6667 8.33333ZM33.3333 31.6667C33.0037 31.6667 32.6815 31.5689 32.4074 31.3858C32.1333 31.2026 31.9197 30.9423 31.7935 30.6378C31.6674 30.3333 31.6344 29.9981 31.6987 29.6748C31.763 29.3515 31.9217 29.0546 32.1548 28.8215C32.3879 28.5884 32.6849 28.4297 33.0082 28.3654C33.3315 28.301 33.6666 28.3341 33.9711 28.4602C34.2757 28.5863 34.536 28.8 34.7191 29.074C34.9023 29.3481 35 29.6704 35 30C35 30.442 34.8244 30.866 34.5118 31.1785C34.1993 31.4911 33.7754 31.6667 33.3333 31.6667ZM33.3333 25C33.0037 25 32.6815 24.9023 32.4074 24.7191C32.1333 24.536 31.9197 24.2757 31.7935 23.9711C31.6674 23.6666 31.6344 23.3315 31.6987 23.0082C31.763 22.6849 31.9217 22.3879 32.1548 22.1548C32.3879 21.9217 32.6849 21.763 33.0082 21.6987C33.3315 21.6344 33.6666 21.6674 33.9711 21.7935C34.2757 21.9197 34.536 22.1333 34.7191 22.4074C34.9023 22.6815 35 23.0037 35 23.3333C35 23.7754 34.8244 24.1993 34.5118 24.5118C34.1993 24.8244 33.7754 25 33.3333 25ZM33.3333 18.3333C33.0037 18.3333 32.6815 18.2356 32.4074 18.0524C32.1333 17.8693 31.9197 17.609 31.7935 17.3045C31.6674 16.9999 31.6344 16.6648 31.6987 16.3415C31.763 16.0182 31.9217 15.7212 32.1548 15.4882C32.3879 15.2551 32.6849 15.0963 33.0082 15.032C33.3315 14.9677 33.6666 15.0007 33.9711 15.1269C34.2757 15.253 34.536 15.4666 34.7191 15.7407C34.9023 16.0148 35 16.337 35 16.6667C35 17.1087 34.8244 17.5326 34.5118 17.8452C34.1993 18.1577 33.7754 18.3333 33.3333 18.3333Z" fill="#0D2855"/>
</svg>
