<svg width="18" height="15" viewBox="0 0 18 15" fill="none" xmlns="http://www.w3.org/2000/svg">
<path d="M9.24897 14.0656L15.5215 7.79312C17.0625 6.24435 17.2871 3.71211 15.8312 2.09365C15.4661 1.68579 15.0217 1.35665 14.5251 1.12635C14.0285 0.896052 13.4901 0.769423 12.9429 0.754203C12.3957 0.738983 11.8512 0.835491 11.3425 1.03783C10.8339 1.24017 10.3719 1.54409 9.98464 1.93103L8.80757 3.11584L7.79313 2.09365C6.24436 0.552623 3.71211 0.328051 2.09365 1.78389C1.68579 2.14901 1.35665 2.59344 1.12635 3.09005C0.896052 3.58666 0.769423 4.12501 0.754203 4.6722C0.738983 5.2194 0.835491 5.76396 1.03783 6.2726C1.24017 6.78124 1.54409 7.24329 1.93103 7.6305L8.36617 14.0656C8.48363 14.182 8.64226 14.2472 8.80757 14.2472C8.97288 14.2472 9.13152 14.182 9.24897 14.0656V14.0656Z" stroke="#75BEBD" stroke-width="1.5" stroke-linecap="round" stroke-linejoin="round"/>
</svg>
