<svg width="40" height="40" viewBox="0 0 40 40" fill="none" xmlns="http://www.w3.org/2000/svg">
<g clip-path="url(#clip0_176_7294)">
<path d="M27.6412 16.0264L25.3495 9.99972H29.3862C30.921 10.0034 32.4336 10.3673 33.8022 11.062C35.1708 11.7567 36.3573 12.7629 37.2662 13.9997L38.5778 15.7914C39.1369 16.554 39.5442 17.4168 39.7778 18.3331H28.2528C28.1345 17.544 27.9294 16.7704 27.6412 16.0264ZM19.9995 6.66639C20.4415 6.66639 20.8655 6.49079 21.178 6.17823C21.4906 5.86567 21.6662 5.44175 21.6662 4.99972V1.66639C21.6662 1.22436 21.4906 0.800436 21.178 0.487875C20.8655 0.175315 20.4415 -0.000280245 19.9995 -0.000280245C19.5575 -0.000280245 19.1336 0.175315 18.821 0.487875C18.5084 0.800436 18.3328 1.22436 18.3328 1.66639V4.99972C18.3328 5.44175 18.5084 5.86567 18.821 6.17823C19.1336 6.49079 19.5575 6.66639 19.9995 6.66639ZM24.5362 17.2381L21.7845 9.99972H18.2295L15.4328 17.4197C15.3256 17.7185 15.2365 18.0235 15.1662 18.3331H24.8678C24.7846 17.9603 24.6737 17.5943 24.5362 17.2381ZM27.5878 6.49972C27.7846 6.59866 27.999 6.65761 28.2187 6.67318C28.4384 6.68874 28.659 6.66061 28.8678 6.5904C29.0765 6.5202 29.2693 6.40931 29.435 6.26416C29.6006 6.119 29.7358 5.94245 29.8328 5.74472L31.4995 2.41139C31.6971 2.01577 31.7294 1.55787 31.5894 1.13841C31.4494 0.718957 31.1485 0.372306 30.7528 0.17472C30.3572 -0.0228665 29.8993 -0.0552029 29.4799 0.0848243C29.0604 0.224851 28.7138 0.525772 28.5162 0.921386L26.8495 4.25472C26.75 4.45049 26.6901 4.664 26.6734 4.88298C26.6566 5.10196 26.6834 5.32209 26.752 5.53071C26.8206 5.73933 26.9297 5.93234 27.0732 6.09864C27.2166 6.26493 27.3915 6.40124 27.5878 6.49972ZM19.9795 31.4781L24.6228 22.7231C24.7407 22.3779 24.8337 22.0248 24.9012 21.6664H14.9995C15.0744 22.0957 15.186 22.5178 15.3328 22.9281L19.9795 31.4781ZM12.3328 16.2147L14.6662 9.99972H10.6378C9.13454 10.0036 7.65222 10.3527 6.30509 11.0199C4.95797 11.6871 3.78201 12.6547 2.86784 13.8481L1.49951 15.6381C0.896612 16.4396 0.465933 17.3571 0.234505 18.3331H11.7345C11.8626 17.6087 12.0631 16.899 12.3328 16.2147ZM28.2812 21.6664C28.1762 22.4628 27.9839 23.2453 27.7078 23.9997C27.6828 24.0664 21.4478 35.7897 21.4428 35.7914C21.3071 36.0551 21.1015 36.2766 20.8486 36.4316C20.5958 36.5867 20.3052 36.6694 20.0086 36.6707C19.7119 36.6721 19.4206 36.5921 19.1663 36.4394C18.912 36.2867 18.7044 36.0672 18.5662 35.8047C18.5662 35.8047 12.2762 24.2847 12.2495 24.2131C11.951 23.3908 11.7518 22.5359 11.6562 21.6664H0.201172C0.509403 23.1577 1.28466 24.5121 2.41451 25.5331L15.7312 38.3781C16.9008 39.4211 18.414 39.9961 19.9812 39.9931C21.5815 39.9899 23.1245 39.3965 24.3145 38.3264L37.5412 25.6047C38.7002 24.5682 39.4973 23.1882 39.8162 21.6664H28.2812ZM10.1745 5.74472C10.3721 6.14144 10.7192 6.44342 11.1394 6.58423C11.5597 6.72504 12.0186 6.69314 12.4153 6.49555C12.8121 6.29797 13.114 5.95088 13.2548 5.53064C13.3957 5.1104 13.3638 4.65144 13.1662 4.25472L11.4995 0.921386C11.4017 0.725498 11.2662 0.550798 11.1009 0.40726C10.9355 0.263722 10.7435 0.154159 10.5358 0.0848243C10.1164 -0.0552029 9.65845 -0.0228665 9.26284 0.17472C8.86722 0.372306 8.5663 0.718957 8.42628 1.13841C8.28625 1.55787 8.31859 2.01577 8.51617 2.41139L10.1745 5.74472Z" fill="#0D2855"/>
</g>
<defs>
<clipPath id="clip0_176_7294">
<rect width="40" height="40" fill="white"/>
</clipPath>
</defs>
</svg>
