<svg width="27" height="27" viewBox="0 0 27 27" fill="none" xmlns="http://www.w3.org/2000/svg">
<g clip-path="url(#clip0_176_7341)">
<path d="M25.6198 8.68638C25.0923 8.07843 24.4403 7.59094 23.7079 7.25689C22.9756 6.92285 22.1801 6.75007 21.3751 6.75024H16.8875L17.2655 4.4541C17.3992 3.64551 17.2379 2.81579 16.8108 2.11627C16.3838 1.41674 15.7195 0.894029 14.9392 0.643466C14.1589 0.392903 13.3145 0.431187 12.56 0.751335C11.8056 1.07148 11.1913 1.65216 10.8293 2.38746L8.67606 6.75024H5.62504C4.13373 6.75203 2.70402 7.34524 1.64951 8.39975C0.594996 9.45426 0.00178635 10.884 0 12.3753L0 18.0003C0.00178635 19.4916 0.594996 20.9213 1.64951 21.9758C2.70402 23.0304 4.13373 23.6236 5.62504 23.6254H20.5876C21.9415 23.6198 23.2485 23.1285 24.2707 22.2407C25.2929 21.3529 25.9625 20.1276 26.1576 18.7878L26.9507 13.1628C27.0624 12.3649 27.0014 11.5522 26.7717 10.7799C26.5421 10.0076 26.1493 9.29368 25.6198 8.68638ZM2.25002 18.0003V12.3753C2.25002 11.4802 2.6056 10.6217 3.23854 9.98878C3.87148 9.35584 4.72993 9.00026 5.62504 9.00026H7.87505V21.3753H5.62504C4.72993 21.3753 3.87148 21.0198 3.23854 20.3868C2.6056 19.7539 2.25002 18.8954 2.25002 18.0003ZM24.7175 12.8467L23.9233 18.4717C23.8072 19.2749 23.4066 20.0098 22.7945 20.5427C22.1823 21.0756 21.3992 21.371 20.5876 21.3753H10.1251V8.701C10.2311 8.60864 10.3189 8.49721 10.3838 8.3725L12.8465 3.38309C12.9388 3.21651 13.0694 3.07422 13.2274 2.96792C13.3855 2.86162 13.5665 2.79434 13.7556 2.77161C13.9447 2.74887 14.1365 2.77134 14.3152 2.83716C14.494 2.90298 14.6545 3.01027 14.7837 3.15022C14.8943 3.27875 14.9751 3.43008 15.0204 3.59343C15.0657 3.75679 15.0744 3.92812 15.0459 4.09522L14.4518 7.69525C14.4258 7.8561 14.435 8.0207 14.4788 8.17766C14.5226 8.33461 14.5999 8.48018 14.7055 8.60429C14.8111 8.7284 14.9424 8.82808 15.0904 8.89645C15.2383 8.96482 15.3993 9.00024 15.5622 9.00026H21.3751C21.8582 9.00019 22.3357 9.10383 22.7753 9.30417C23.2149 9.50451 23.6063 9.79689 23.9232 10.1615C24.24 10.5262 24.4749 10.9546 24.612 11.4178C24.749 11.8811 24.785 12.3683 24.7175 12.8467Z" fill="white"/>
</g>
<defs>
<clipPath id="clip0_176_7341">
<rect width="26.1818" height="26.1818" fill="white" transform="scale(1.03126)"/>
</clipPath>
</defs>
</svg>
