<svg width="40" height="41" viewBox="0 0 40 41" fill="none" xmlns="http://www.w3.org/2000/svg">
<g clip-path="url(#clip0_176_7292)">
<path d="M38.3333 37.5833H8.33333C7.00725 37.5833 5.73548 37.0434 4.7978 36.0823C3.86012 35.1211 3.33333 33.8176 3.33333 32.4583V1.70833C3.33333 1.25526 3.15774 0.820734 2.84518 0.500359C2.53262 0.179985 2.10869 0 1.66667 0C1.22464 0 0.800716 0.179985 0.488155 0.500359C0.175595 0.820734 0 1.25526 0 1.70833L0 32.4583C0.00264643 34.7229 0.88147 36.8939 2.4437 38.4952C4.00593 40.0965 6.12401 40.9973 8.33333 41H38.3333C38.7754 41 39.1993 40.82 39.5118 40.4996C39.8244 40.1793 40 39.7447 40 39.2917C40 38.8386 39.8244 38.4041 39.5118 38.0837C39.1993 37.7633 38.7754 37.5833 38.3333 37.5833Z" fill="#0D2855"/>
<path d="M10.0006 34.1665C10.4427 34.1665 10.8666 33.9865 11.1792 33.6661C11.4917 33.3458 11.6673 32.9112 11.6673 32.4582V20.4998C11.6673 20.0468 11.4917 19.6122 11.1792 19.2919C10.8666 18.9715 10.4427 18.7915 10.0006 18.7915C9.55862 18.7915 9.1347 18.9715 8.82214 19.2919C8.50958 19.6122 8.33398 20.0468 8.33398 20.4998V32.4582C8.33398 32.9112 8.50958 33.3458 8.82214 33.6661C9.1347 33.9865 9.55862 34.1665 10.0006 34.1665Z" fill="#0D2855"/>
<path d="M16.666 17.0833V32.4583C16.666 32.9114 16.8416 33.3459 17.1542 33.6663C17.4667 33.9867 17.8907 34.1666 18.3327 34.1666C18.7747 34.1666 19.1986 33.9867 19.5112 33.6663C19.8238 33.3459 19.9994 32.9114 19.9994 32.4583V17.0833C19.9994 16.6303 19.8238 16.1957 19.5112 15.8754C19.1986 15.555 18.7747 15.375 18.3327 15.375C17.8907 15.375 17.4667 15.555 17.1542 15.8754C16.8416 16.1957 16.666 16.6303 16.666 17.0833Z" fill="#0D2855"/>
<path d="M25 22.2083V32.4583C25 32.9114 25.1756 33.3459 25.4882 33.6663C25.8007 33.9867 26.2246 34.1666 26.6667 34.1666C27.1087 34.1666 27.5326 33.9867 27.8452 33.6663C28.1578 33.3459 28.3334 32.9114 28.3334 32.4583V22.2083C28.3334 21.7553 28.1578 21.3207 27.8452 21.0004C27.5326 20.68 27.1087 20.5 26.6667 20.5C26.2246 20.5 25.8007 20.68 25.4882 21.0004C25.1756 21.3207 25 21.7553 25 22.2083Z" fill="#0D2855"/>
<path d="M33.334 15.3748V32.4582C33.334 32.9112 33.5096 33.3458 33.8221 33.6661C34.1347 33.9865 34.5586 34.1665 35.0007 34.1665C35.4427 34.1665 35.8666 33.9865 36.1792 33.6661C36.4917 33.3458 36.6673 32.9112 36.6673 32.4582V15.3748C36.6673 14.9218 36.4917 14.4872 36.1792 14.1669C35.8666 13.8465 35.4427 13.6665 35.0007 13.6665C34.5586 13.6665 34.1347 13.8465 33.8221 14.1669C33.5096 14.4872 33.334 14.9218 33.334 15.3748Z" fill="#0D2855"/>
<path d="M10.0003 15.375C10.4423 15.3749 10.8661 15.1949 11.1786 14.8745L17.1553 8.74838C17.473 8.43819 17.8949 8.26517 18.3336 8.26517C18.7724 8.26517 19.1943 8.43819 19.512 8.74838L23.132 12.4589C24.0696 13.4197 25.3411 13.9594 26.667 13.9594C27.9928 13.9594 29.2643 13.4197 30.202 12.4589L39.512 2.91613C39.8156 2.59393 39.9835 2.1624 39.9798 1.71449C39.976 1.26657 39.8007 0.838094 39.4917 0.521355C39.1826 0.204617 38.7646 0.024953 38.3276 0.0210607C37.8906 0.0171684 37.4696 0.189359 37.1553 0.500546L27.8453 10.0416C27.5328 10.3618 27.1089 10.5418 26.667 10.5418C26.225 10.5418 25.8012 10.3618 25.4886 10.0416L21.8686 6.3328C20.931 5.37201 19.6594 4.83227 18.3336 4.83227C17.0078 4.83227 15.7363 5.37201 14.7986 6.3328L8.82196 12.4589C8.58895 12.6978 8.43027 13.0022 8.36599 13.3335C8.30171 13.6648 8.33472 14.0083 8.46083 14.3204C8.58695 14.6325 8.80052 14.8993 9.07453 15.087C9.34855 15.2747 9.67071 15.3749 10.0003 15.375Z" fill="#0D2855"/>
</g>
<defs>
<clipPath id="clip0_176_7292">
<rect width="40" height="41" fill="white"/>
</clipPath>
</defs>
</svg>
