<svg width="40" height="40" viewBox="0 0 40 40" fill="none" xmlns="http://www.w3.org/2000/svg">
<g clip-path="url(#clip0_176_7293)">
<path d="M31.6667 6.66699H8.33333C6.12401 6.66964 4.00593 7.54846 2.4437 9.11069C0.88147 10.6729 0.00264643 12.791 0 15.0003L0 25.0003C0.00264643 27.2097 0.88147 29.3277 2.4437 30.89C4.00593 32.4522 6.12401 33.331 8.33333 33.3337H31.6667C33.876 33.331 35.9941 32.4522 37.5563 30.89C39.1185 29.3277 39.9974 27.2097 40 25.0003V15.0003C39.9974 12.791 39.1185 10.6729 37.5563 9.11069C35.9941 7.54846 33.876 6.66964 31.6667 6.66699ZM6.66667 28.3337C6.33703 28.3337 6.0148 28.2359 5.74072 28.0528C5.46663 27.8696 5.25301 27.6093 5.12687 27.3048C5.00072 27.0003 4.96772 26.6651 5.03202 26.3418C5.09633 26.0185 5.25507 25.7216 5.48816 25.4885C5.72124 25.2554 6.01821 25.0967 6.34152 25.0324C6.66482 24.968 6.99993 25.001 7.30447 25.1272C7.60902 25.2533 7.86931 25.467 8.05245 25.741C8.23558 26.0151 8.33333 26.3374 8.33333 26.667C8.33333 27.109 8.15774 27.5329 7.84518 27.8455C7.53262 28.1581 7.10869 28.3337 6.66667 28.3337ZM6.66667 15.0003C6.33703 15.0003 6.0148 14.9026 5.74072 14.7194C5.46663 14.5363 5.25301 14.276 5.12687 13.9715C5.00072 13.6669 4.96772 13.3318 5.03202 13.0085C5.09633 12.6852 5.25507 12.3882 5.48816 12.1551C5.72124 11.9221 6.01821 11.7633 6.34152 11.699C6.66482 11.6347 6.99993 11.6677 7.30447 11.7939C7.60902 11.92 7.86931 12.1336 8.05245 12.4077C8.23558 12.6818 8.33333 13.004 8.33333 13.3337C8.33333 13.7757 8.15774 14.1996 7.84518 14.5122C7.53262 14.8247 7.10869 15.0003 6.66667 15.0003ZM20 26.667C18.6815 26.667 17.3925 26.276 16.2962 25.5435C15.1999 24.8109 14.3454 23.7697 13.8408 22.5515C13.3362 21.3334 13.2042 19.9929 13.4614 18.6997C13.7187 17.4065 14.3536 16.2186 15.286 15.2863C16.2183 14.3539 17.4062 13.719 18.6994 13.4618C19.9926 13.2045 21.333 13.3365 22.5512 13.8411C23.7694 14.3457 24.8106 15.2002 25.5431 16.2965C26.2757 17.3929 26.6667 18.6818 26.6667 20.0003C26.6667 21.7684 25.9643 23.4641 24.714 24.7144C23.4638 25.9646 21.7681 26.667 20 26.667ZM33.3333 28.3337C33.0037 28.3337 32.6815 28.2359 32.4074 28.0528C32.1333 27.8696 31.9197 27.6093 31.7935 27.3048C31.6674 27.0003 31.6344 26.6651 31.6987 26.3418C31.763 26.0185 31.9217 25.7216 32.1548 25.4885C32.3879 25.2554 32.6849 25.0967 33.0082 25.0324C33.3315 24.968 33.6666 25.001 33.9711 25.1272C34.2757 25.2533 34.536 25.467 34.7191 25.741C34.9023 26.0151 35 26.3374 35 26.667C35 27.109 34.8244 27.5329 34.5118 27.8455C34.1993 28.1581 33.7754 28.3337 33.3333 28.3337ZM33.3333 15.0003C33.0037 15.0003 32.6815 14.9026 32.4074 14.7194C32.1333 14.5363 31.9197 14.276 31.7935 13.9715C31.6674 13.6669 31.6344 13.3318 31.6987 13.0085C31.763 12.6852 31.9217 12.3882 32.1548 12.1551C32.3879 11.9221 32.6849 11.7633 33.0082 11.699C33.3315 11.6347 33.6666 11.6677 33.9711 11.7939C34.2757 11.92 34.536 12.1336 34.7191 12.4077C34.9023 12.6818 35 13.004 35 13.3337C35 13.7757 34.8244 14.1996 34.5118 14.5122C34.1993 14.8247 33.7754 15.0003 33.3333 15.0003ZM23.3333 20.0003C23.3333 20.6596 23.1378 21.3041 22.7716 21.8522C22.4053 22.4004 21.8847 22.8276 21.2756 23.0799C20.6665 23.3322 19.9963 23.3982 19.3497 23.2696C18.7031 23.141 18.1092 22.8235 17.643 22.3573C17.1768 21.8912 16.8593 21.2972 16.7307 20.6506C16.6021 20.004 16.6681 19.3338 16.9204 18.7247C17.1727 18.1156 17.5999 17.595 18.1481 17.2288C18.6963 16.8625 19.3407 16.667 20 16.667C20.8841 16.667 21.7319 17.0182 22.357 17.6433C22.9821 18.2684 23.3333 19.1163 23.3333 20.0003Z" fill="#0D2855"/>
</g>
<defs>
<clipPath id="clip0_176_7293">
<rect width="40" height="40" fill="white"/>
</clipPath>
</defs>
</svg>
