<svg width="27" height="27" viewBox="0 0 27 27" fill="none" xmlns="http://www.w3.org/2000/svg">
<g clip-path="url(#clip0_176_7330)">
<path d="M21.3751 3.37525H5.62504C4.13373 3.37704 2.70402 3.97025 1.64951 5.02476C0.594996 6.07927 0.00178635 7.50899 0 9.00029L0 15.7503C0.00178635 17.2416 0.594996 18.6714 1.64951 19.7259C2.70402 20.7804 4.13373 21.3736 5.62504 21.3754H12.3751V22.5004H9.00006C8.70169 22.5004 8.41554 22.6189 8.20456 22.8299C7.99358 23.0409 7.87505 23.327 7.87505 23.6254C7.87505 23.9238 7.99358 24.2099 8.20456 24.4209C8.41554 24.6319 8.70169 24.7504 9.00006 24.7504H18.0001C18.2985 24.7504 18.5846 24.6319 18.7956 24.4209C19.0066 24.2099 19.1251 23.9238 19.1251 23.6254C19.1251 23.327 19.0066 23.0409 18.7956 22.8299C18.5846 22.6189 18.2985 22.5004 18.0001 22.5004H14.6251V21.3754H21.3751C22.8665 21.3736 24.2962 20.7804 25.3507 19.7259C26.4052 18.6714 26.9984 17.2416 27.0002 15.7503V9.00029C26.9984 7.50899 26.4052 6.07927 25.3507 5.02476C24.2962 3.97025 22.8665 3.37704 21.3751 3.37525ZM24.7502 15.7503C24.7502 16.6454 24.3946 17.5039 23.7616 18.1368C23.1287 18.7698 22.2703 19.1254 21.3751 19.1254H5.62504C4.72993 19.1254 3.87148 18.7698 3.23854 18.1368C2.6056 17.5039 2.25002 16.6454 2.25002 15.7503V9.00029C2.25002 8.10518 2.6056 7.24673 3.23854 6.61379C3.87148 5.98085 4.72993 5.62527 5.62504 5.62527H21.3751C22.2703 5.62527 23.1287 5.98085 23.7616 6.61379C24.3946 7.24673 24.7502 8.10518 24.7502 9.00029V15.7503Z" fill="white"/>
</g>
<defs>
<clipPath id="clip0_176_7330">
<rect width="26.1818" height="26.1818" fill="white" transform="scale(1.03126)"/>
</clipPath>
</defs>
</svg>
